<?xml version="1.0" encoding="UTF-8" standalone="no"?>
<!-- Created with Inkscape (http://www.inkscape.org/) -->

<svg
   xmlns:dc="http://purl.org/dc/elements/1.1/"
   xmlns:cc="http://creativecommons.org/ns#"
   xmlns:rdf="http://www.w3.org/1999/02/22-rdf-syntax-ns#"
   xmlns:svg="http://www.w3.org/2000/svg"
   xmlns="http://www.w3.org/2000/svg"
   xmlns:sodipodi="http://sodipodi.sourceforge.net/DTD/sodipodi-0.dtd"
   xmlns:inkscape="http://www.inkscape.org/namespaces/inkscape"
   width="180.00014mm"
   height="120.19758mm"
   viewBox="0 0 180.00014 120.19758"
   version="1.1"
   id="svg931"
   inkscape:version="0.92.2 (5c3e80d, 2017-08-06)"
   sodipodi:docname="final_berlin_clock.svg">
  <defs
     id="defs925" />
  <sodipodi:namedview
     id="base"
     pagecolor="#ffffff"
     bordercolor="#666666"
     borderopacity="1.0"
     inkscape:pageopacity="0.0"
     inkscape:pageshadow="2"
     inkscape:zoom="0.90509668"
     inkscape:cx="377.93189"
     inkscape:cy="267.08114"
     inkscape:document-units="mm"
     inkscape:current-layer="layer4"
     showgrid="false"
     inkscape:snap-global="false"
     inkscape:window-width="1366"
     inkscape:window-height="713"
     inkscape:window-x="0"
     inkscape:window-y="27"
     inkscape:window-maximized="1"
     showguides="true"
     inkscape:guide-bbox="true"
     fit-margin-top="10"
     fit-margin-left="10"
     fit-margin-bottom="10"
     fit-margin-right="10" />
  <metadata
     id="metadata928">
    <rdf:RDF>
      <cc:Work
         rdf:about="">
        <dc:format>image/svg+xml</dc:format>
        <dc:type
           rdf:resource="http://purl.org/dc/dcmitype/StillImage" />
        <dc:title></dc:title>
      </cc:Work>
    </rdf:RDF>
  </metadata>
  <g
     inkscape:label="supports"
     inkscape:groupmode="layer"
     id="layer1"
     style="display:inline"
     transform="translate(-14.999982,-115.29009)">
    <path
       style="fill:#58a4c5;fill-opacity:1;stroke-width:0.06436234"
       d="m 88.200091,133.08229 v 9.99986 h 33.599819 v -9.99986 z"
       id="rect3718-36-06"
       inkscape:connector-curvature="0" />
    <path
       style="fill:#58a4c5;fill-opacity:1;stroke-width:0.06436234"
       d="m 104.99999,148.02011 v 9.99986 h 33.59982 v -9.99986 z"
       id="rect3718-36-06-6"
       inkscape:connector-curvature="0" />
    <path
       style="fill:#58a4c5;fill-opacity:1;stroke-width:0.06436234"
       d="m 37.800373,148.02011 v 9.99986 h 33.599818 v -9.99986 z"
       id="rect3718-36-06-3"
       inkscape:connector-curvature="0" />
    <path
       style="fill:#58a4c5;fill-opacity:1;stroke-width:0.06436234"
       d="m 71.400173,148.02011 v 9.99986 h 33.599817 v -9.99986 z"
       id="rect3718-36-06-2"
       inkscape:connector-curvature="0" />
    <path
       style="fill:#58a4c5;fill-opacity:1;stroke-width:0.06436234"
       d="m 138.59981,148.02011 v 9.99986 h 33.59982 v -9.99986 z"
       id="rect3718-36-06-27"
       inkscape:connector-curvature="0" />
    <path
       style="fill:#58a4c5;fill-opacity:1;stroke-width:0.06436234"
       d="m 104.99999,159.2388 v 9.99987 h 33.59982 v -9.99987 z"
       id="rect3718-36-06-6-3"
       inkscape:connector-curvature="0" />
    <path
       style="fill:#58a4c5;fill-opacity:1;stroke-width:0.06436234"
       d="m 37.80037,159.2388 v 9.99987 h 33.599818 v -9.99987 z"
       id="rect3718-36-06-3-6"
       inkscape:connector-curvature="0" />
    <path
       style="fill:#58a4c5;fill-opacity:1;stroke-width:0.06436234"
       d="m 71.400172,159.2388 v 9.99987 h 33.599818 v -9.99987 z"
       id="rect3718-36-06-2-1"
       inkscape:connector-curvature="0" />
    <path
       style="fill:#58a4c5;fill-opacity:1;stroke-width:0.06436234"
       d="m 138.59981,159.2388 v 9.99987 h 33.59982 v -9.99987 z"
       id="rect3718-36-06-27-9"
       inkscape:connector-curvature="0" />
    <path
       style="fill:#58a4c5;fill-opacity:1;stroke-width:0.06436234"
       d="m 104.99999,206.0135 v 9.99987 h 33.59982 v -9.99987 z"
       id="rect3718-36-06-6-2"
       inkscape:connector-curvature="0" />
    <path
       style="fill:#58a4c5;fill-opacity:1;stroke-width:0.06436234"
       d="m 37.800371,206.0135 v 9.99987 h 33.599818 v -9.99987 z"
       id="rect3718-36-06-3-5"
       inkscape:connector-curvature="0" />
    <path
       style="fill:#58a4c5;fill-opacity:1;stroke-width:0.06436234"
       d="m 71.400172,206.0135 v 9.99987 h 33.599818 v -9.99987 z"
       id="rect3718-36-06-2-2"
       inkscape:connector-curvature="0" />
    <path
       style="fill:#58a4c5;fill-opacity:1;stroke-width:0.06436234"
       d="m 138.59981,206.0135 v 9.99987 h 33.59982 v -9.99987 z"
       id="rect3718-36-06-27-6"
       inkscape:connector-curvature="0" />
    <path
       style="fill:#58a4c5;fill-opacity:1;stroke-width:0.06436234"
       d="M 90.000208,170.82618 H 80.000341 V 204.426 h 9.999867 z"
       id="rect3718-36-06-9"
       inkscape:connector-curvature="0" />
    <path
       style="fill:#58a4c5;fill-opacity:1;stroke-width:0.06436234"
       d="m 100.00007,170.82618 h -9.999866 v 33.59981 h 9.999866 z"
       id="rect3718-36-06-4"
       inkscape:connector-curvature="0" />
    <path
       style="fill:#58a4c5;fill-opacity:1;stroke-width:0.06436234"
       d="m 119.9998,170.82617 h -9.99987 v 33.59982 h 9.99987 z"
       id="rect3718-36-06-5"
       inkscape:connector-curvature="0" />
    <path
       style="fill:#58a4c5;fill-opacity:1;stroke-width:0.06436234"
       d="m 109.99993,170.82617 h -9.99986 v 33.59982 h 9.99986 z"
       id="rect3718-36-06-0"
       inkscape:connector-curvature="0" />
    <path
       style="fill:#58a4c5;fill-opacity:1;stroke-width:0.06436234"
       d="M 70.000482,170.82619 H 60.000615 V 204.426 h 9.999867 z"
       id="rect3718-36-06-06"
       inkscape:connector-curvature="0" />
    <path
       style="fill:#58a4c5;fill-opacity:1;stroke-width:0.06436234"
       d="m 60.000619,170.82619 h -9.999867 v 33.59982 h 9.999867 z"
       id="rect3718-36-06-47"
       inkscape:connector-curvature="0" />
    <path
       style="fill:#58a4c5;fill-opacity:1;stroke-width:0.06436234"
       d="M 80.000345,170.82618 H 70.000478 V 204.426 h 9.999867 z"
       id="rect3718-36-06-37"
       inkscape:connector-curvature="0" />
    <path
       style="fill:#58a4c5;fill-opacity:1;stroke-width:0.06436234"
       d="m 129.99966,170.82617 h -9.99987 v 33.59981 h 9.99987 z"
       id="rect3718-36-06-54"
       inkscape:connector-curvature="0" />
    <path
       style="fill:#58a4c5;fill-opacity:1;stroke-width:0.06436234"
       d="m 139.99952,170.82616 h -9.99986 v 33.59982 h 9.99986 z"
       id="rect3718-36-06-07"
       inkscape:connector-curvature="0" />
    <path
       style="fill:#58a4c5;fill-opacity:1;stroke-width:0.06436234"
       d="m 149.99939,170.82616 h -9.99987 v 33.59982 h 9.99987 z"
       id="rect3718-36-06-8"
       inkscape:connector-curvature="0" />
    <path
       style="fill:#58a4c5;fill-opacity:1;stroke-width:0.06436234"
       d="m 159.99925,170.82616 h -9.99987 v 33.59982 h 9.99987 z"
       id="rect3718-36-06-92"
       inkscape:connector-curvature="0" />
  </g>
  <g
     inkscape:groupmode="layer"
     id="layer3"
     inkscape:label="leds"
     style="display:inline"
     transform="translate(-14.999982,-115.29009)">
    <path
       style="fill:#ffdb00;fill-opacity:1;stroke-width:0.26458332"
       d="m 107,138.08222 a 2,2 0 0 1 -2,2 2,2 0 0 1 -2,-2 2,2 0 0 1 2,-2 2,2 0 0 1 2,2 z"
       id="path3914-32"
       inkscape:connector-curvature="0" />
    <path
       style="fill:#ffdb00;fill-opacity:1;stroke-width:0.26458332"
       d="m 123.7999,153.02004 a 2,2 0 0 1 -2,2 2,2 0 0 1 -2,-2 2,2 0 0 1 2,-2 2,2 0 0 1 2,2 z"
       id="path3914-32-7"
       inkscape:connector-curvature="0" />
    <path
       style="fill:#ffdb00;fill-opacity:1;stroke-width:0.26458332"
       d="m 56.600282,153.02004 a 2,2 0 0 1 -2,2 2,2 0 0 1 -2,-2 2,2 0 0 1 2,-2 2,2 0 0 1 2,2 z"
       id="path3914-32-5"
       inkscape:connector-curvature="0" />
    <path
       style="fill:#ffdb00;fill-opacity:1;stroke-width:0.26458332"
       d="m 90.200082,153.02004 a 2,2 0 0 1 -2,2 2,2 0 0 1 -2,-2 2,2 0 0 1 2,-2 2,2 0 0 1 2,2 z"
       id="path3914-32-9"
       inkscape:connector-curvature="0" />
    <path
       style="fill:#ffdb00;fill-opacity:1;stroke-width:0.26458332"
       d="m 157.39972,153.02004 a 2,2 0 0 1 -2,2 2,2 0 0 1 -2,-2 2,2 0 0 1 2,-2 2,2 0 0 1 2,2 z"
       id="path3914-32-0"
       inkscape:connector-curvature="0" />
    <path
       style="fill:#ffdb00;fill-opacity:1;stroke-width:0.26458332"
       d="m 123.7999,164.23873 a 2,2 0 0 1 -2,2.00001 2,2 0 0 1 -2,-2.00001 2,2 0 0 1 2,-2 2,2 0 0 1 2,2 z"
       id="path3914-32-7-6"
       inkscape:connector-curvature="0" />
    <path
       style="fill:#ffdb00;fill-opacity:1;stroke-width:0.26458332"
       d="m 56.600279,164.23873 a 2,2 0 0 1 -2,2.00001 2,2 0 0 1 -2,-2.00001 2,2 0 0 1 2,-2 2,2 0 0 1 2,2 z"
       id="path3914-32-5-2"
       inkscape:connector-curvature="0" />
    <path
       style="fill:#ffdb00;fill-opacity:1;stroke-width:0.26458332"
       d="m 90.200081,164.23873 a 2,2 0 0 1 -2,2.00001 2,2 0 0 1 -2,-2.00001 2,2 0 0 1 2,-2 2,2 0 0 1 2,2 z"
       id="path3914-32-9-8"
       inkscape:connector-curvature="0" />
    <path
       style="fill:#ffdb00;fill-opacity:1;stroke-width:0.26458332"
       d="m 157.39972,164.23873 a 2,2 0 0 1 -2,2.00001 2,2 0 0 1 -2,-2.00001 2,2 0 0 1 2,-2 2,2 0 0 1 2,2 z"
       id="path3914-32-0-2"
       inkscape:connector-curvature="0" />
    <path
       style="fill:#ffdb00;fill-opacity:1;stroke-width:0.26458332"
       d="m 123.7999,211.01344 a 2,2 0 0 1 -2,2 2,2 0 0 1 -2,-2 2,2 0 0 1 2,-2 2,2 0 0 1 2,2 z"
       id="path3914-32-7-3"
       inkscape:connector-curvature="0" />
    <path
       style="fill:#ffdb00;fill-opacity:1;stroke-width:0.26458332"
       d="m 56.60028,211.01344 a 2,2 0 0 1 -2,2 2,2 0 0 1 -2,-2 2,2 0 0 1 2,-2 2,2 0 0 1 2,2 z"
       id="path3914-32-5-9"
       inkscape:connector-curvature="0" />
    <path
       style="fill:#ffdb00;fill-opacity:1;stroke-width:0.26458332"
       d="m 90.200081,211.01344 a 2,2 0 0 1 -2,2 2,2 0 0 1 -2,-2 2,2 0 0 1 2,-2 2,2 0 0 1 2,2 z"
       id="path3914-32-9-89"
       inkscape:connector-curvature="0" />
    <path
       style="fill:#ffdb00;fill-opacity:1;stroke-width:0.26458332"
       d="m 157.39972,211.01344 a 2,2 0 0 1 -2,2 2,2 0 0 1 -2,-2 2,2 0 0 1 2,-2 2,2 0 0 1 2,2 z"
       id="path3914-32-0-1"
       inkscape:connector-curvature="0" />
    <path
       style="fill:#ffdb00;fill-opacity:1;stroke-width:0.26458332"
       d="m 85.000274,189.62609 a 2,2 0 0 1 -2.000003,-2 2,2 0 0 1 2.000003,-2 2,2 0 0 1 2,2 2,2 0 0 1 -2,2 z"
       id="path3914-32-3"
       inkscape:connector-curvature="0" />
    <path
       style="fill:#ffdb00;fill-opacity:1;stroke-width:0.26458332"
       d="m 95.000137,189.62609 a 2,2 0 0 1 -2.000003,-2 2,2 0 0 1 2.000003,-2 2,2 0 0 1 2,2 2,2 0 0 1 -2,2 z"
       id="path3914-32-78"
       inkscape:connector-curvature="0" />
    <path
       style="fill:#ffdb00;fill-opacity:1;stroke-width:0.26458332"
       d="m 114.99986,189.62608 a 2,2 0 0 1 -2,-2 2,2 0 0 1 2,-2 2,2 0 0 1 2,2 2,2 0 0 1 -2,2 z"
       id="path3914-32-03"
       inkscape:connector-curvature="0" />
    <path
       style="fill:#ffdb00;fill-opacity:1;stroke-width:0.26458332"
       d="m 105,189.62608 a 2,2 0 0 1 -2,-2 2,2 0 0 1 2,-2 2,2 0 0 1 2,2 2,2 0 0 1 -2,2 z"
       id="path3914-32-6"
       inkscape:connector-curvature="0" />
    <path
       style="fill:#ffdb00;fill-opacity:1;stroke-width:0.26458332"
       d="m 65.000548,189.62609 a 2,2 0 0 1 -2.000003,-2 2,2 0 0 1 2.000003,-2 2,2 0 0 1 2,2 2,2 0 0 1 -2,2 z"
       id="path3914-32-1"
       inkscape:connector-curvature="0" />
    <path
       style="fill:#ffdb00;fill-opacity:1;stroke-width:0.26458332"
       d="m 55.000685,189.6261 a 2,2 0 0 1 -2.000004,-2 2,2 0 0 1 2.000004,-2 2,2 0 0 1 2,2 2,2 0 0 1 -2,2 z"
       id="path3914-32-65"
       inkscape:connector-curvature="0" />
    <path
       style="fill:#ffdb00;fill-opacity:1;stroke-width:0.26458332"
       d="m 75.000411,189.62609 a 2,2 0 0 1 -2.000003,-2 2,2 0 0 1 2.000003,-2 2,2 0 0 1 2,2 2,2 0 0 1 -2,2 z"
       id="path3914-32-4"
       inkscape:connector-curvature="0" />
    <path
       style="fill:#ffdb00;fill-opacity:1;stroke-width:0.26458332"
       d="m 124.99973,189.62608 a 2,2 0 0 1 -2.00001,-2 2,2 0 0 1 2.00001,-2 2,2 0 0 1 2,2 2,2 0 0 1 -2,2 z"
       id="path3914-32-74"
       inkscape:connector-curvature="0" />
    <path
       style="fill:#ffdb00;fill-opacity:1;stroke-width:0.26458332"
       d="m 134.99959,189.62607 a 2,2 0 0 1 -2,-2 2,2 0 0 1 2,-2 2,2 0 0 1 2,2 2,2 0 0 1 -2,2 z"
       id="path3914-32-8"
       inkscape:connector-curvature="0" />
    <path
       style="fill:#ffdb00;fill-opacity:1;stroke-width:0.26458332"
       d="m 144.99945,189.62607 a 2,2 0 0 1 -2,-2 2,2 0 0 1 2,-2 2,2 0 0 1 2,2 2,2 0 0 1 -2,2 z"
       id="path3914-32-43"
       inkscape:connector-curvature="0" />
    <path
       style="fill:#ffdb00;fill-opacity:1;stroke-width:0.26458332"
       d="m 154.99932,189.62607 a 2,2 0 0 1 -2.00001,-2 2,2 0 0 1 2.00001,-2 2,2 0 0 1 2,2 2,2 0 0 1 -2,2 z"
       id="path3914-32-06"
       inkscape:connector-curvature="0" />
  </g>
  <g
     inkscape:groupmode="layer"
     id="layer5"
     inkscape:label="back"
     style="display:inline"
     transform="translate(-14.999982,-115.29009)">
    <path
       style="fill:#008000;fill-opacity:0.39852403;stroke:#000000;stroke-width:0.12720762;stroke-miterlimit:4;stroke-dasharray:none;stroke-dashoffset:0;stroke-opacity:1"
       d="M 25.063602,125.55128 H 184.9364 v 99.87278 H 25.063602 Z"
       id="rect1967"
       inkscape:connector-curvature="0" />
    <path
       style="display:inline;fill:#58a4c5;fill-opacity:1;stroke-width:0.06436234"
       d="m 88.13415,133.03632 v 9.99991 h 33.5995 v -9.99991 z m -50.400021,14.93759 v 9.99991 h 33.600016 33.599495 33.60002 33.60002 v -9.99991 H 138.53366 104.93364 71.334145 Z m 0,11.21895 v 9.99991 h 33.600016 33.599495 33.60002 33.60002 v -9.99991 H 138.53366 104.93364 71.334145 Z m 12.200289,11.58741 v 33.5995 h 9.999906 9.999906 9.999908 9.999902 9.99991 9.99991 9.9999 9.99991 9.99991 9.9999 9.99939 v -33.5995 h -9.99939 -9.9999 -9.99991 -9.99991 -9.9999 -9.99991 -9.99991 -9.999902 -9.999908 -9.999906 z m -12.200289,35.187 v 9.9999 h 33.600016 33.599495 33.60002 33.60002 v -9.9999 H 138.53366 104.93364 71.334145 Z"
       id="rect3718-36-06-36"
       inkscape:connector-curvature="0" />
  </g>
  <g
     inkscape:groupmode="layer"
     id="layer6"
     inkscape:label="middle"
     style="display:inline"
     transform="translate(-14.999982,-115.29009)">
    <path
       style="display:inline;fill:#008000;fill-opacity:0.39852403;stroke:#000000;stroke-width:0.48078471;stroke-miterlimit:4;stroke-dasharray:none;stroke-dashoffset:0;stroke-opacity:1"
       d="m 94.728516,474.52539 v 377.4707 H 698.97266 v -51.50586 h -33.16407 v 23.73633 H 116.00977 v -81.77734 h 53.0332 V 656.27148 H 131.47852 V 547.4082 h 190.82421 v -55.75976 h 185.92969 v 32.04101 h 171.25391 v 157.99414 h -59.66211 v 85.07227 h 45.98437 v 26.58398 h 33.16407 V 474.52539 Z"
       transform="scale(0.26458333)"
       id="rect1967-0"
       inkscape:connector-curvature="0" />
  </g>
  <g
     inkscape:groupmode="layer"
     id="layer4"
     inkscape:label="front"
     style="display:inline"
     transform="translate(-14.999982,-115.29009)">
    <path
       style="fill:#008000;fill-opacity:0.39852403;stroke:#000000;stroke-width:0.48000002;stroke-miterlimit:4;stroke-dasharray:none;stroke-dashoffset:0;stroke-opacity:1"
       d="M 94.728516,473.77734 V 851.25 H 698.97266 V 473.77734 Z m 302.121094,32.9668 a 15.11811,15.11811 0 0 1 15.11914,15.11914 15.11811,15.11811 0 0 1 -15.11914,15.11719 15.11811,15.11811 0 0 1 -15.11719,-15.11719 15.11811,15.11811 0 0 1 15.11719,-15.11914 z m -190.48633,56.45898 a 15.11811,15.11811 0 0 1 15.11719,15.11719 15.11811,15.11811 0 0 1 -15.11719,15.11914 15.11811,15.11811 0 0 1 -15.11719,-15.11914 15.11811,15.11811 0 0 1 15.11719,-15.11719 z m 126.99219,0 a 15.11811,15.11811 0 0 1 15.11719,15.11719 15.11811,15.11811 0 0 1 -15.11719,15.11914 15.11811,15.11811 0 0 1 -15.11914,-15.11914 15.11811,15.11811 0 0 1 15.11914,-15.11719 z m 126.99023,0 a 15.11811,15.11811 0 0 1 15.11914,15.11719 15.11811,15.11811 0 0 1 -15.11914,15.11914 15.11811,15.11811 0 0 1 -15.11718,-15.11914 15.11811,15.11811 0 0 1 15.11718,-15.11719 z m 126.99219,0 a 15.11811,15.11811 0 0 1 15.11719,15.11719 15.11811,15.11811 0 0 1 -15.11719,15.11914 15.11811,15.11811 0 0 1 -15.11914,-15.11914 15.11811,15.11811 0 0 1 15.11914,-15.11719 z m -380.97461,42.4004 a 15.11811,15.11811 0 0 1 15.11719,15.11914 15.11811,15.11811 0 0 1 -15.11719,15.11718 15.11811,15.11811 0 0 1 -15.11719,-15.11718 15.11811,15.11811 0 0 1 15.11719,-15.11914 z m 126.99219,0 a 15.11811,15.11811 0 0 1 15.11719,15.11914 15.11811,15.11811 0 0 1 -15.11719,15.11718 15.11811,15.11811 0 0 1 -15.11914,-15.11718 15.11811,15.11811 0 0 1 15.11914,-15.11914 z m 126.99023,0 a 15.11811,15.11811 0 0 1 15.11914,15.11914 15.11811,15.11811 0 0 1 -15.11914,15.11718 15.11811,15.11811 0 0 1 -15.11718,-15.11718 15.11811,15.11811 0 0 1 15.11718,-15.11914 z m 126.99219,0 a 15.11811,15.11811 0 0 1 15.11719,15.11914 15.11811,15.11811 0 0 1 -15.11719,15.11718 15.11811,15.11811 0 0 1 -15.11914,-15.11718 15.11811,15.11811 0 0 1 15.11914,-15.11914 z m -190.48828,88.39257 a 15.11811,15.11811 0 0 1 15.11914,15.11914 15.11811,15.11811 0 0 1 -15.11914,15.11719 15.11811,15.11811 0 0 1 -15.11719,-15.11719 15.11811,15.11811 0 0 1 15.11719,-15.11914 z m 37.79492,0 a 15.11811,15.11811 0 0 1 15.11914,15.11914 15.11811,15.11811 0 0 1 -15.11914,15.11719 15.11811,15.11811 0 0 1 -15.11719,-15.11719 15.11811,15.11811 0 0 1 15.11719,-15.11914 z m 37.79492,0 a 15.11811,15.11811 0 0 1 15.11914,15.11914 15.11811,15.11811 0 0 1 -15.11914,15.11719 15.11811,15.11811 0 0 1 -15.11718,-15.11719 15.11811,15.11811 0 0 1 15.11718,-15.11914 z m 37.79493,0 a 15.11811,15.11811 0 0 1 15.11914,15.11914 15.11811,15.11811 0 0 1 -15.11914,15.11719 15.11811,15.11811 0 0 1 -15.11719,-15.11719 15.11811,15.11811 0 0 1 15.11719,-15.11914 z m 37.79492,0 a 15.11811,15.11811 0 0 1 15.11914,15.11914 15.11811,15.11811 0 0 1 -15.11914,15.11719 15.11811,15.11811 0 0 1 -15.11719,-15.11719 15.11811,15.11811 0 0 1 15.11719,-15.11914 z m 37.79492,0 a 15.11811,15.11811 0 0 1 15.11719,15.11914 15.11811,15.11811 0 0 1 -15.11719,15.11719 15.11811,15.11811 0 0 1 -15.11914,-15.11719 15.11811,15.11811 0 0 1 15.11914,-15.11914 z m -377.94727,0.002 a 15.11811,15.11811 0 0 1 15.11719,15.11718 15.11811,15.11811 0 0 1 -15.11719,15.11719 15.11811,15.11811 0 0 1 -15.11914,-15.11719 15.11811,15.11811 0 0 1 15.11914,-15.11718 z m 37.79493,0 a 15.11811,15.11811 0 0 1 15.11718,15.11718 15.11811,15.11811 0 0 1 -15.11718,15.11719 15.11811,15.11811 0 0 1 -15.11915,-15.11719 15.11811,15.11811 0 0 1 15.11915,-15.11718 z m 37.79492,0 a 15.11811,15.11811 0 0 1 15.11718,15.11718 15.11811,15.11811 0 0 1 -15.11718,15.11719 15.11811,15.11811 0 0 1 -15.11914,-15.11719 15.11811,15.11811 0 0 1 15.11914,-15.11718 z m 37.79492,0 a 15.11811,15.11811 0 0 1 15.11719,15.11718 15.11811,15.11811 0 0 1 -15.11719,15.11719 15.11811,15.11811 0 0 1 -15.11914,-15.11719 15.11811,15.11811 0 0 1 15.11914,-15.11718 z m 37.79297,0 a 15.11811,15.11811 0 0 1 15.11914,15.11718 15.11811,15.11811 0 0 1 -15.11914,15.11719 15.11811,15.11811 0 0 1 -15.11719,-15.11719 15.11811,15.11811 0 0 1 15.11719,-15.11718 z m -152.69141,88.39257 a 15.11811,15.11811 0 0 1 15.11719,15.11719 15.11811,15.11811 0 0 1 -15.11719,15.11914 15.11811,15.11811 0 0 1 -15.11719,-15.11914 15.11811,15.11811 0 0 1 15.11719,-15.11719 z m 126.99219,0 a 15.11811,15.11811 0 0 1 15.11719,15.11719 15.11811,15.11811 0 0 1 -15.11719,15.11914 15.11811,15.11811 0 0 1 -15.11914,-15.11914 15.11811,15.11811 0 0 1 15.11914,-15.11719 z m 126.99023,0 a 15.11811,15.11811 0 0 1 15.11914,15.11719 15.11811,15.11811 0 0 1 -15.11914,15.11914 15.11811,15.11811 0 0 1 -15.11718,-15.11914 15.11811,15.11811 0 0 1 15.11718,-15.11719 z m 126.99219,0 a 15.11811,15.11811 0 0 1 15.11719,15.11719 15.11811,15.11811 0 0 1 -15.11719,15.11914 15.11811,15.11811 0 0 1 -15.11914,-15.11914 15.11811,15.11811 0 0 1 15.11914,-15.11719 z"
       transform="scale(0.26458333)"
       id="rect1967-8"
       inkscape:connector-curvature="0" />
    <flowRoot
       xml:space="preserve"
       id="flowRoot886"
       style="font-style:normal;font-variant:normal;font-weight:normal;font-stretch:normal;font-size:33.33333206px;line-height:1.25;font-family:Bilbo;-inkscape-font-specification:Bilbo;letter-spacing:0px;word-spacing:0px;fill:#000000;fill-opacity:1;stroke:none"><flowRegion
         id="flowRegion888"><rect
           id="rect890"
           width="261.85049"
           height="40.879612"
           x="184.51068"
           y="643.01288" /></flowRegion><flowPara
         id="flowPara892" /></flowRoot>    <g
       aria-label="Mengenlehreuhr"
       style="font-style:normal;font-variant:normal;font-weight:normal;font-stretch:normal;font-size:8.8194437px;line-height:1.25;font-family:Bilbo;-inkscape-font-specification:Bilbo;letter-spacing:0px;word-spacing:0px;fill:#000000;fill-opacity:1;stroke:none;stroke-width:0.26458332"
       id="text896">
      <path
         d="m 67.755818,177.99506 -0.183444,-0.18344 q -0.169333,0.19755 -0.310444,0.19755 -0.338667,0 -0.338667,-0.762 v -5.48922 q 0,-0.32455 0.169333,-0.64911 0.05644,-0.0988 0.141111,-0.22578 0.09878,-0.14111 0.239889,-0.33866 l -0.155222,-0.11289 -0.550333,0.40922 -1.467556,-1.00189 -2.328333,1.49578 q -0.183445,-0.93133 -1.114778,-1.53811 l -2.525889,1.36878 q -1.693333,0.91722 -1.693333,3.18911 -0.677333,0.0847 -1.044222,0.36689 -0.352778,0.26811 -0.493889,0.90311 0.508,-0.16934 0.747889,-0.16934 0.268111,0 0.479778,0.0988 0.254,0.0847 0.451555,0.254 0.211667,0.16933 0.352778,0.39511 0.155222,0.22578 0.225778,0.508 0.08467,0.26811 0.08467,0.53622 0,0.32456 -0.155222,0.67734 -0.225778,0.39511 -1.707444,0.71966 -1.143,0.23989 -1.143,1.60867 h 0.08467 q 0.338667,-0.62089 1.016,-0.62089 0.07056,0 0.141112,0 0.08467,0.0141 0.183444,0.0282 0.536222,0.0706 0.832555,0.11289 0.296334,0.0423 0.324556,0.0423 0.508,0 0.973667,-0.29634 0.931333,-0.56444 0.931333,-1.96144 v -2.63878 h 1.552222 l 0.01411,2.31422 q 0,0.16934 -0.112889,0.32456 -0.02822,0.0282 -0.08467,0.0988 -0.05644,0.0564 -0.155222,0.127 v 0.11289 q 0.310444,0.23988 0.663222,0.56444 0.352777,0.32456 0.762,0.762 l 2.116666,-1.87678 -0.197555,-0.22578 -0.324556,0.23989 v -2.44122 l 0.733778,-1.03011 h -0.719667 v -2.96333 l 0.282223,-0.14111 1.015999,0.74789 0.01411,5.95488 q 0,1.34056 1.030111,1.73567 z m -3.880555,-4.10633 h -0.903111 l -0.01411,-2.11667 0.917222,-0.62088 z m -2.384778,-2.44122 -0.01411,2.44122 h -1.001889 l -0.564444,0.83256 v -2.413 q 0,-0.83256 0.691444,-1.48167 0.889,0 0.888999,0.62089 z m 2.384778,6.15244 -0.451556,0.40922 q -0.465666,-0.18344 -0.465666,-0.71966 l 0.01411,-2.37067 h 0.903111 z m -3.979333,-6.33589 q -0.239889,0.508 -0.239889,0.95956 v 5.24933 q 0,1.10067 -0.889,1.10067 -0.197556,0 -0.578556,-0.127 0.860778,-0.47978 0.860778,-1.70745 v -3.78177 q 0,-0.62089 0.169333,-0.98778 0.169334,-0.36689 0.635,-0.74789 z"
         style="font-style:normal;font-variant:normal;font-weight:normal;font-stretch:normal;font-size:14.11111069px;font-family:'Old London';-inkscape-font-specification:'Old London';letter-spacing:1.4552083px;stroke-width:0.26458332"
         id="path898"
         inkscape:connector-curvature="0" />
      <path
         d="m 73.828668,174.31206 -1.820333,-1.82033 q -0.465667,0.32456 -0.945445,0.60678 -0.465666,0.28222 -0.959555,0.508 v 3.76766 q 0,0.62089 -0.395111,1.03012 1.001888,0.18344 1.947333,0.70555 l 1.227667,-0.86078 q 0.211666,-0.15522 0.395111,-0.28222 0.197555,-0.127 0.381,-0.23989 l -0.155223,-0.16933 -0.931333,0.59267 -1.185333,-0.52212 v -1.46755 q 0.889,-0.762 2.441222,-1.84856 z m -1.114778,0.46567 -1.340555,1.05833 v -2.42711 z"
         style="font-style:normal;font-variant:normal;font-weight:normal;font-stretch:normal;font-size:14.11111069px;font-family:'Old London';-inkscape-font-specification:'Old London';letter-spacing:1.4552083px;stroke-width:0.26458332"
         id="path900"
         inkscape:connector-curvature="0" />
      <path
         d="m 81.49519,178.12206 -0.141111,-0.14111 -0.296333,0.16934 q -0.296334,-0.19756 -0.395111,-0.45156 v -3.71122 q 0.155222,-0.23989 0.310444,-0.46567 0.155222,-0.22578 0.310445,-0.42333 l -0.141112,-0.15522 -0.606777,0.47977 -0.973667,-0.90311 q -0.310444,0.28223 -0.762,0.64911 -0.451556,0.36689 -1.044222,0.80434 0,-0.94545 -0.889,-1.48167 l -1.157111,1.05833 0.141111,0.15523 0.225778,-0.15523 q 0.338666,0.28223 0.338666,0.64911 v 3.62656 l -0.395111,0.43744 1.072445,0.90312 1.016,-0.90312 -0.381,-0.47977 v -3.49956 l 1.001888,-0.73378 0.635,0.55034 v 3.37255 q 0,0.635 0.169334,1.00189 0.183444,0.36689 0.691444,0.69145 z"
         style="font-style:normal;font-variant:normal;font-weight:normal;font-stretch:normal;font-size:14.11111069px;font-family:'Old London';-inkscape-font-specification:'Old London';letter-spacing:1.4552083px;stroke-width:0.26458332"
         id="path902"
         inkscape:connector-curvature="0" />
      <path
         d="m 89.07969,174.15684 v -1.34055 l -1.058333,0.66322 -2.159,-0.98778 q -0.451555,0.22578 -0.719667,0.35278 -0.254,0.127 -0.324555,0.15522 -0.310445,0.14111 -0.592667,0.23989 -0.268111,0.0988 -0.522111,0.15522 v 4.62845 l 1.312333,0.93133 -1.523999,1.73567 0.296333,0.254 q 0.889,-0.29634 1.665111,-0.29634 0.705555,0 1.792111,0.29634 0.381,-0.18345 0.564444,-0.28223 0.197556,-0.0847 0.197556,-0.0847 0.903111,-0.43745 0.973667,-0.93134 v -0.0564 q 0,-0.22578 -0.508,-0.97367 -0.493889,-0.77611 -0.493889,-1.24178 v -3.38666 z m -2.356555,3.00567 -0.874889,0.889 -0.903111,-0.60678 v -4.00756 l 1.778,0.508 z m 1.411111,2.76578 -0.02822,0.16933 q -1.213556,-0.381 -2.243667,-0.381 -0.776111,0 -1.199444,0.0847 l 2.017889,-2.22956 q 0.08467,0.71967 0.508,1.34056 0.268111,0.381 0.945444,1.016 z"
         style="font-style:normal;font-variant:normal;font-weight:normal;font-stretch:normal;font-size:14.11111069px;font-family:'Old London';-inkscape-font-specification:'Old London';letter-spacing:1.4552083px;stroke-width:0.26458332"
         id="path904"
         inkscape:connector-curvature="0" />
      <path
         d="m 95.116601,174.31206 -1.820333,-1.82033 q -0.465667,0.32456 -0.945444,0.60678 -0.465667,0.28222 -0.959556,0.508 v 3.76766 q 0,0.62089 -0.395111,1.03012 1.001889,0.18344 1.947333,0.70555 l 1.227667,-0.86078 q 0.211667,-0.15522 0.395111,-0.28222 0.197556,-0.127 0.381,-0.23989 l -0.155222,-0.16933 -0.931334,0.59267 -1.185333,-0.52212 v -1.46755 q 0.889,-0.762 2.441222,-1.84856 z m -1.114777,0.46567 -1.340556,1.05833 v -2.42711 z"
         style="font-style:normal;font-variant:normal;font-weight:normal;font-stretch:normal;font-size:14.11111069px;font-family:'Old London';-inkscape-font-specification:'Old London';letter-spacing:1.4552083px;stroke-width:0.26458332"
         id="path906"
         inkscape:connector-curvature="0" />
      <path
         d="m 102.78312,178.12206 -0.14111,-0.14111 -0.29633,0.16934 q -0.29634,-0.19756 -0.39511,-0.45156 v -3.71122 q 0.15522,-0.23989 0.31044,-0.46567 0.15522,-0.22578 0.31044,-0.42333 l -0.14111,-0.15522 -0.60677,0.47977 -0.97367,-0.90311 q -0.31044,0.28223 -0.762,0.64911 -0.451556,0.36689 -1.044223,0.80434 0,-0.94545 -0.889,-1.48167 l -1.157111,1.05833 0.141111,0.15523 0.225778,-0.15523 q 0.338667,0.28223 0.338667,0.64911 v 3.62656 l -0.395111,0.43744 1.072444,0.90312 1.016,-0.90312 -0.381,-0.47977 v -3.49956 l 1.001885,-0.73378 0.635,0.55034 v 3.37255 q 0,0.635 0.16934,1.00189 0.18344,0.36689 0.69144,0.69145 z"
         style="font-style:normal;font-variant:normal;font-weight:normal;font-stretch:normal;font-size:14.11111069px;font-family:'Old London';-inkscape-font-specification:'Old London';letter-spacing:1.4552083px;stroke-width:0.26458332"
         id="path908"
         inkscape:connector-curvature="0" />
      <path
         d="m 108.06751,178.02329 -0.16933,-0.18345 -0.33867,0.254 -1.03011,-0.64911 v -5.94078 q 0,-0.77611 0.69145,-1.28411 -0.80434,0.11289 -1.45345,0.71967 l -0.15522,0.0141 q -0.40922,-0.32456 -0.93133,-0.45156 0.46566,0.49389 0.46566,0.90312 v 5.63033 q 0,0.60678 -0.36689,1.016 1.34056,0.49389 2.00378,1.07244 z"
         style="font-style:normal;font-variant:normal;font-weight:normal;font-stretch:normal;font-size:14.11111069px;font-family:'Old London';-inkscape-font-specification:'Old London';letter-spacing:1.4552083px;stroke-width:0.26458332"
         id="path910"
         inkscape:connector-curvature="0" />
      <path
         d="m 114.11699,174.31206 -1.82033,-1.82033 q -0.46567,0.32456 -0.94545,0.60678 -0.46566,0.28222 -0.95955,0.508 v 3.76766 q 0,0.62089 -0.39511,1.03012 1.00188,0.18344 1.94733,0.70555 l 1.22767,-0.86078 q 0.21166,-0.15522 0.39511,-0.28222 0.19755,-0.127 0.381,-0.23989 l -0.15523,-0.16933 -0.93133,0.59267 -1.18533,-0.52212 v -1.46755 q 0.889,-0.762 2.44122,-1.84856 z m -1.11478,0.46567 -1.34055,1.05833 v -2.42711 z"
         style="font-style:normal;font-variant:normal;font-weight:normal;font-stretch:normal;font-size:14.11111069px;font-family:'Old London';-inkscape-font-specification:'Old London';letter-spacing:1.4552083px;stroke-width:0.26458332"
         id="path912"
         inkscape:connector-curvature="0" />
      <path
         d="m 121.09207,177.61406 v -3.44311 q 0,-1.03011 -0.93133,-1.651 l -1.97556,1.45345 v -2.49767 q 0,-0.762 0.60678,-1.28411 -0.73378,0 -1.35467,0.70556 l -0.21166,0.0141 q -0.35278,-0.26811 -0.87489,-0.46567 l -0.0282,0.0282 q 0.508,0.46567 0.508,1.41111 v 0.83256 h -0.71966 v 0.69144 h 0.69144 v 4.41678 l -0.40922,0.47978 1.05833,0.86078 1.07245,-0.93134 -0.36689,-0.40922 v -3.48544 l 1.11478,-0.83256 q 0.45155,0.28222 0.53622,0.66322 v 3.95111 q 0,1.016 -0.74789,1.56634 -0.19756,0.14111 -0.635,0.33866 -0.42333,0.21167 -1.11478,0.47978 l 0.0423,0.0847 q 1.46755,-0.28222 2.42711,-0.91722 1.31233,-0.81845 1.31233,-2.06023 z"
         style="font-style:normal;font-variant:normal;font-weight:normal;font-stretch:normal;font-size:14.11111069px;font-family:'Old London';-inkscape-font-specification:'Old London';letter-spacing:1.4552083px;stroke-width:0.26458332"
         id="path914"
         inkscape:connector-curvature="0" />
      <path
         d="m 127.57568,173.50773 -0.91722,-1.00189 -1.42522,1.08656 q -0.0564,-0.43745 -0.28222,-0.67734 -0.16934,-0.19755 -0.60678,-0.42333 l -1.19944,1.05833 0.15522,0.15523 0.23989,-0.15523 q 0.33866,0.28223 0.33866,0.64911 v 2.83634 q 0,0.70555 -0.381,1.016 1.016,0.39511 1.80622,1.07244 l 1.28412,-1.10066 -0.16934,-0.16934 -0.40922,0.29634 -0.762,-0.59267 v -3.65478 l 0.55033,-0.42333 0.84667,0.83255 z"
         style="font-style:normal;font-variant:normal;font-weight:normal;font-stretch:normal;font-size:14.11111069px;font-family:'Old London';-inkscape-font-specification:'Old London';letter-spacing:1.4552083px;stroke-width:0.26458332"
         id="path916"
         inkscape:connector-curvature="0" />
      <path
         d="m 133.39299,174.31206 -1.82033,-1.82033 q -0.46567,0.32456 -0.94545,0.60678 -0.46566,0.28222 -0.95955,0.508 v 3.76766 q 0,0.62089 -0.39511,1.03012 1.00189,0.18344 1.94733,0.70555 l 1.22767,-0.86078 q 0.21166,-0.15522 0.39511,-0.28222 0.19755,-0.127 0.381,-0.23989 l -0.15522,-0.16933 -0.93134,0.59267 -1.18533,-0.52212 v -1.46755 q 0.889,-0.762 2.44122,-1.84856 z m -1.11478,0.46567 -1.34055,1.05833 v -2.42711 z"
         style="font-style:normal;font-variant:normal;font-weight:normal;font-stretch:normal;font-size:14.11111069px;font-family:'Old London';-inkscape-font-specification:'Old London';letter-spacing:1.4552083px;stroke-width:0.26458332"
         id="path918"
         inkscape:connector-curvature="0" />
      <path
         d="m 141.07362,178.12206 -0.14111,-0.14111 -0.254,0.16934 q -0.42333,-0.22578 -0.42333,-0.45156 v -4.02167 l 0.40922,-0.35277 -1.04422,-0.83256 -1.00189,0.83256 0.33867,0.42333 v 3.54189 l -1.143,0.81844 q -0.508,-0.26811 -0.508,-0.67733 v -3.75356 l 0.42333,-0.33866 -1.07244,-0.83256 -1.35467,1.04422 0.14111,0.15523 0.32456,-0.19756 0.254,0.23989 v 3.72533 q 0,1.07245 0.889,1.63689 l 2.01788,-1.43933 q 0,0.889 0.889,1.49578 z"
         style="font-style:normal;font-variant:normal;font-weight:normal;font-stretch:normal;font-size:14.11111069px;font-family:'Old London';-inkscape-font-specification:'Old London';letter-spacing:1.4552083px;stroke-width:0.26458332"
         id="path920"
         inkscape:connector-curvature="0" />
      <path
         d="m 148.07957,177.61406 v -3.44311 q 0,-1.03011 -0.93133,-1.651 l -1.97556,1.45345 v -2.49767 q 0,-0.762 0.60678,-1.28411 -0.73378,0 -1.35467,0.70556 l -0.21166,0.0141 q -0.35278,-0.26811 -0.87489,-0.46567 l -0.0282,0.0282 q 0.508,0.46567 0.508,1.41111 v 0.83256 h -0.71966 v 0.69144 h 0.69144 v 4.41678 l -0.40922,0.47978 1.05833,0.86078 1.07245,-0.93134 -0.36689,-0.40922 v -3.48544 l 1.11478,-0.83256 q 0.45155,0.28222 0.53622,0.66322 v 3.95111 q 0,1.016 -0.74789,1.56634 -0.19756,0.14111 -0.635,0.33866 -0.42333,0.21167 -1.11478,0.47978 l 0.0423,0.0847 q 1.46756,-0.28222 2.42712,-0.91722 1.31233,-0.81845 1.31233,-2.06023 z"
         style="font-style:normal;font-variant:normal;font-weight:normal;font-stretch:normal;font-size:14.11111069px;font-family:'Old London';-inkscape-font-specification:'Old London';letter-spacing:1.4552083px;stroke-width:0.26458332"
         id="path922"
         inkscape:connector-curvature="0" />
      <path
         d="m 154.56318,173.50773 -0.91722,-1.00189 -1.42523,1.08656 q -0.0564,-0.43745 -0.28222,-0.67734 -0.16933,-0.19755 -0.60678,-0.42333 l -1.19944,1.05833 0.15522,0.15523 0.23989,-0.15523 q 0.33867,0.28223 0.33867,0.64911 v 2.83634 q 0,0.70555 -0.381,1.016 1.016,0.39511 1.80622,1.07244 l 1.28411,-1.10066 -0.16933,-0.16934 -0.40922,0.29634 -0.762,-0.59267 v -3.65478 l 0.55033,-0.42333 0.84667,0.83255 z"
         style="font-style:normal;font-variant:normal;font-weight:normal;font-stretch:normal;font-size:14.11111069px;font-family:'Old London';-inkscape-font-specification:'Old London';letter-spacing:1.4552083px;stroke-width:0.26458332"
         id="path924"
         inkscape:connector-curvature="0" />
    </g>
  </g>
</svg>
